<svg width="30" height="45" viewBox="0 0 30 45" fill="none" xmlns="http://www.w3.org/2000/svg">
<rect y="3" width="30" height="40" rx="5" fill="black"/>
<path d="M4.24 18.208C3.54667 18.208 2.92267 18.112 2.368 17.92C1.824 17.7173 1.39733 17.44 1.088 17.088C0.789333 16.7253 0.64 16.32 0.64 15.872C0.64 15.3813 0.794667 14.976 1.104 14.656C1.424 14.336 1.824 14.176 2.304 14.176C2.4 14.176 2.47467 14.192 2.528 14.224C2.58133 14.256 2.608 14.2933 2.608 14.336C2.608 14.368 2.56 14.4533 2.464 14.592C2.37867 14.7307 2.304 14.8853 2.24 15.056C2.176 15.2267 2.144 15.4293 2.144 15.664C2.144 16.176 2.336 16.592 2.72 16.912C3.104 17.232 3.61067 17.392 4.24 17.392C4.79467 17.392 5.24267 17.248 5.584 16.96C5.92533 16.6613 6.096 16.256 6.096 15.744C6.096 15.328 5.98933 14.976 5.776 14.688C5.56267 14.4 5.296 14.1653 4.976 13.984C4.66667 13.792 4.24533 13.5787 3.712 13.344C3.104 13.0773 2.608 12.8267 2.224 12.592C1.85067 12.3573 1.53067 12.048 1.264 11.664C1.008 11.28 0.88 10.7947 0.88 10.208C0.88 9.71733 0.997333 9.25867 1.232 8.832C1.47733 8.39467 1.84 8.048 2.32 7.792C2.8 7.52533 3.38133 7.392 4.064 7.392C4.68267 7.392 5.23733 7.48267 5.728 7.664C6.21867 7.84533 6.60267 8.096 6.88 8.416C7.15733 8.736 7.296 9.104 7.296 9.52C7.296 10.0107 7.14667 10.416 6.848 10.736C6.56 11.0453 6.192 11.2 5.744 11.2C5.552 11.2 5.456 11.1413 5.456 11.024C5.456 11.0027 5.49333 10.928 5.568 10.8C5.65333 10.6613 5.728 10.5067 5.792 10.336C5.856 10.1547 5.888 9.94667 5.888 9.712C5.888 9.27467 5.71733 8.912 5.376 8.624C5.03467 8.336 4.59733 8.192 4.064 8.192C3.488 8.192 3.04533 8.35733 2.736 8.688C2.42667 9.008 2.272 9.40267 2.272 9.872C2.272 10.2347 2.37333 10.544 2.576 10.8C2.77867 11.056 3.02933 11.2747 3.328 11.456C3.62667 11.6267 4.04267 11.8293 4.576 12.064C5.216 12.352 5.73333 12.6187 6.128 12.864C6.53333 13.1093 6.87467 13.44 7.152 13.856C7.42933 14.2613 7.568 14.768 7.568 15.376C7.568 16.24 7.27467 16.928 6.688 17.44C6.112 17.952 5.296 18.208 4.24 18.208Z" fill="white"/>
<path d="M21.576 38.504L21.928 38.424C22.2907 38.328 22.5307 38.1947 22.648 38.024C22.776 37.8427 22.84 37.528 22.84 37.08V29.912C22.84 29.784 22.8133 29.6987 22.76 29.656C22.7067 29.6027 22.6267 29.576 22.52 29.576H21.688L21.512 29.032C21.928 28.872 22.4773 28.728 23.16 28.6C23.8427 28.4613 24.4987 28.392 25.128 28.392C26.5467 28.392 27.6027 28.712 28.296 29.352C28.9893 29.992 29.336 30.8187 29.336 31.832C29.336 32.4613 29.208 33.032 28.952 33.544C28.7067 34.056 28.3227 34.4667 27.8 34.776C27.288 35.0747 26.648 35.224 25.88 35.224C25.5387 35.224 25.24 35.1813 24.984 35.096C24.728 35 24.6 34.872 24.6 34.712C24.6 34.616 24.616 34.536 24.648 34.472C24.6907 34.3973 24.7493 34.36 24.824 34.36C24.856 34.36 24.936 34.3813 25.064 34.424C25.192 34.456 25.3467 34.472 25.528 34.472C26.2533 34.472 26.8187 34.2373 27.224 33.768C27.64 33.2987 27.848 32.6747 27.848 31.896C27.848 31.1067 27.6293 30.4613 27.192 29.96C26.7653 29.448 26.1573 29.192 25.368 29.192C24.6427 29.192 24.28 29.4213 24.28 29.88V36.088C24.28 36.6853 24.328 37.16 24.424 37.512C24.52 37.8533 24.6907 38.184 24.936 38.504L25.128 38.76L24.936 39H21.752L21.576 38.504Z" fill="white"/>
</svg>
