<svg width="20" height="30" viewBox="0 0 20 30" fill="none" xmlns="http://www.w3.org/2000/svg">
<rect width="20" height="30" fill="#5E5353"/>
<path d="M6.18 14.156C5.66 14.156 5.192 14.084 4.776 13.94C4.368 13.788 4.048 13.58 3.816 13.316C3.592 13.044 3.48 12.74 3.48 12.404C3.48 12.036 3.596 11.732 3.828 11.492C4.068 11.252 4.368 11.132 4.728 11.132C4.8 11.132 4.856 11.144 4.896 11.168C4.936 11.192 4.956 11.22 4.956 11.252C4.956 11.276 4.92 11.34 4.848 11.444C4.784 11.548 4.728 11.664 4.68 11.792C4.632 11.92 4.608 12.072 4.608 12.248C4.608 12.632 4.752 12.944 5.04 13.184C5.328 13.424 5.708 13.544 6.18 13.544C6.596 13.544 6.932 13.436 7.188 13.22C7.444 12.996 7.572 12.692 7.572 12.308C7.572 11.996 7.492 11.732 7.332 11.516C7.172 11.3 6.972 11.124 6.732 10.988C6.5 10.844 6.184 10.684 5.784 10.508C5.328 10.308 4.956 10.12 4.668 9.944C4.388 9.768 4.148 9.536 3.948 9.248C3.756 8.96 3.66 8.596 3.66 8.156C3.66 7.788 3.748 7.444 3.924 7.124C4.108 6.796 4.38 6.536 4.74 6.344C5.1 6.144 5.536 6.044 6.048 6.044C6.512 6.044 6.928 6.112 7.296 6.248C7.664 6.384 7.952 6.572 8.16 6.812C8.368 7.052 8.472 7.328 8.472 7.64C8.472 8.008 8.36 8.312 8.136 8.552C7.92 8.784 7.644 8.9 7.308 8.9C7.164 8.9 7.092 8.856 7.092 8.768C7.092 8.752 7.12 8.696 7.176 8.6C7.24 8.496 7.296 8.38 7.344 8.252C7.392 8.116 7.416 7.96 7.416 7.784C7.416 7.456 7.288 7.184 7.032 6.968C6.776 6.752 6.448 6.644 6.048 6.644C5.616 6.644 5.284 6.768 5.052 7.016C4.82 7.256 4.704 7.552 4.704 7.904C4.704 8.176 4.78 8.408 4.932 8.6C5.084 8.792 5.272 8.956 5.496 9.092C5.72 9.22 6.032 9.372 6.432 9.548C6.912 9.764 7.3 9.964 7.596 10.148C7.9 10.332 8.156 10.58 8.364 10.892C8.572 11.196 8.676 11.576 8.676 12.032C8.676 12.68 8.456 13.196 8.016 13.58C7.584 13.964 6.972 14.156 6.18 14.156Z" fill="white"/>
<path d="M10.432 22.628L10.696 22.568C10.968 22.496 11.148 22.396 11.236 22.268C11.332 22.132 11.38 21.896 11.38 21.56V16.184C11.38 16.088 11.36 16.024 11.32 15.992C11.28 15.952 11.22 15.932 11.14 15.932H10.516L10.384 15.524C10.696 15.404 11.108 15.296 11.62 15.2C12.132 15.096 12.624 15.044 13.096 15.044C14.16 15.044 14.952 15.284 15.472 15.764C15.992 16.244 16.252 16.864 16.252 17.624C16.252 18.096 16.156 18.524 15.964 18.908C15.78 19.292 15.492 19.6 15.1 19.832C14.716 20.056 14.236 20.168 13.66 20.168C13.404 20.168 13.18 20.136 12.988 20.072C12.796 20 12.7 19.904 12.7 19.784C12.7 19.712 12.712 19.652 12.736 19.604C12.768 19.548 12.812 19.52 12.868 19.52C12.892 19.52 12.952 19.536 13.048 19.568C13.144 19.592 13.26 19.604 13.396 19.604C13.94 19.604 14.364 19.428 14.668 19.076C14.98 18.724 15.136 18.256 15.136 17.672C15.136 17.08 14.972 16.596 14.644 16.22C14.324 15.836 13.868 15.644 13.276 15.644C12.732 15.644 12.46 15.816 12.46 16.16V20.816C12.46 21.264 12.496 21.62 12.568 21.884C12.64 22.14 12.768 22.388 12.952 22.628L13.096 22.82L12.952 23H10.564L10.432 22.628Z" fill="white"/>
</svg>
